<svg xmlns="http://www.w3.org/2000/svg" viewBox="0 0 100 100" width="64" height="64">
  <!-- Templane — favicon. Strokes thickened so the mark holds at 16px.
       Render at 16/32/48/64. -->
  <path d="M 28 22 C 22 22, 20 30, 20 38 L 20 44 C 20 48, 16 50, 12 50 C 16 50, 20 52, 20 56 L 20 62 C 20 70, 22 78, 28 78"
        fill="none" stroke="#0A0A0A" stroke-width="11" stroke-linecap="round" stroke-linejoin="round"/>
  <rect x="36" y="26" width="9" height="48" fill="#0A0A0A"/>
  <rect x="45" y="43" width="25" height="14" fill="#0F5C3A"/>
  <path d="M 72 22 C 78 22, 80 30, 80 38 L 80 44 C 80 48, 84 50, 88 50 C 84 50, 80 52, 80 56 L 80 62 C 80 70, 78 78, 72 78"
        fill="none" stroke="#0A0A0A" stroke-width="11" stroke-linecap="round" stroke-linejoin="round"/>
</svg>
