<svg xmlns="http://www.w3.org/2000/svg" viewBox="0 0 100 100" width="256" height="256">
  <!-- Templane — reverse mark for dark surfaces.
       Cream braces/stem + bright emerald crossbar. Transparent background. -->
  <path d="M 28 22 C 20 22, 18 30, 18 38 L 18 44 C 18 48, 15 50, 12 50 C 15 50, 18 52, 18 56 L 18 62 C 18 70, 20 78, 28 78"
        fill="none" stroke="#FAFAF7" stroke-width="6" stroke-linecap="round" stroke-linejoin="round"/>
  <rect x="36" y="28" width="6" height="44" fill="#FAFAF7"/>
  <rect x="42" y="46" width="22" height="8" fill="#4ECB8C"/>
  <path d="M 72 22 C 80 22, 82 30, 82 38 L 82 44 C 82 48, 85 50, 88 50 C 85 50, 82 52, 82 56 L 82 62 C 82 70, 80 78, 72 78"
        fill="none" stroke="#FAFAF7" stroke-width="6" stroke-linecap="round" stroke-linejoin="round"/>
</svg>
