<svg xmlns="http://www.w3.org/2000/svg" viewBox="0 0 320 260" width="320" height="260">
  <!-- Templane — vertical stacked lockup. Mark above wordmark. -->
  <g transform="translate(110 20) scale(1.0)">
    <path d="M 28 22 C 20 22, 18 30, 18 38 L 18 44 C 18 48, 15 50, 12 50 C 15 50, 18 52, 18 56 L 18 62 C 18 70, 20 78, 28 78"
          fill="none" stroke="#0A0A0A" stroke-width="6" stroke-linecap="round" stroke-linejoin="round"/>
    <rect x="36" y="28" width="6" height="44" fill="#0A0A0A"/>
    <rect x="42" y="46" width="22" height="8" fill="#0F5C3A"/>
    <path d="M 72 22 C 80 22, 82 30, 82 38 L 82 44 C 82 48, 85 50, 88 50 C 85 50, 82 52, 82 56 L 82 62 C 82 70, 80 78, 72 78"
          fill="none" stroke="#0A0A0A" stroke-width="6" stroke-linecap="round" stroke-linejoin="round"/>
  </g>
  <text x="160" y="220"
        font-family="'SF Pro Display', 'Helvetica Neue', Arial, sans-serif"
        font-size="46"
        font-weight="500"
        letter-spacing="-1.4"
        fill="#0A0A0A"
        text-anchor="middle">templane</text>
</svg>
