<svg xmlns="http://www.w3.org/2000/svg" viewBox="0 0 64 64" width="64" height="64">
  <!-- Templane — favicon (thicker strokes, no dot/underline, optimized for 16px) -->
  <rect width="64" height="64" rx="10" fill="#F4EDE0"/>

  <!-- { -->
  <path d="M 20 12
           C 14 12, 12 18, 12 26
           L 12 30
           C 12 32, 10 32, 6 32
           C 10 32, 12 32, 12 34
           L 12 38
           C 12 46, 14 52, 20 52"
        fill="none" stroke="#2B2A28" stroke-width="4" stroke-linecap="round" stroke-linejoin="round"/>

  <!-- } -->
  <path d="M 44 12
           C 50 12, 52 18, 52 26
           L 52 30
           C 52 32, 54 32, 58 32
           C 54 32, 52 32, 52 34
           L 52 38
           C 52 46, 50 52, 44 52"
        fill="none" stroke="#2B2A28" stroke-width="4" stroke-linecap="round" stroke-linejoin="round"/>

  <!-- check -->
  <path d="M 22 34 L 29 42 L 42 24"
        fill="none" stroke="#4A6B52" stroke-width="5" stroke-linecap="round" stroke-linejoin="round"/>
</svg>
