<svg xmlns="http://www.w3.org/2000/svg" viewBox="0 0 640 160" width="640" height="160">
  <!-- Templane — horizontal wordmark (mark + typeset name) -->
  <rect width="640" height="160" fill="#F4EDE0"/>

  <!-- mark, scaled to 120×120, left-aligned with padding -->
  <g transform="translate(20 20) scale(0.469)">
    <!-- Left brace { -->
    <path d="M 82 58
             C 64 58, 58 72, 58 94
             L 58 116
             C 58 124, 52 128, 42 128
             C 52 128, 58 132, 58 140
             L 58 162
             C 58 184, 64 198, 82 198"
          fill="none" stroke="#2B2A28" stroke-width="11" stroke-linecap="round" stroke-linejoin="round"/>
    <!-- Right brace } -->
    <path d="M 174 58
             C 192 58, 198 72, 198 94
             L 198 116
             C 198 124, 204 128, 214 128
             C 204 128, 198 132, 198 140
             L 198 162
             C 198 184, 192 198, 174 198"
          fill="none" stroke="#2B2A28" stroke-width="11" stroke-linecap="round" stroke-linejoin="round"/>
    <!-- check -->
    <path d="M 96 132 L 118 154 L 162 102"
          fill="none" stroke="#4A6B52" stroke-width="15" stroke-linecap="round" stroke-linejoin="round"/>
    <!-- ochre dot -->
    <circle cx="172" cy="82" r="6.5" fill="#D9A441" stroke="#2B2A28" stroke-width="2.5"/>
    <!-- underline -->
    <path d="M 88 218 Q 128 210, 168 218"
          fill="none" stroke="#C75B3C" stroke-width="5" stroke-linecap="round"/>
  </g>

  <!-- Wordmark — serif humanist feel -->
  <text x="164" y="100"
        font-family="'Iowan Old Style', 'Palatino Linotype', Georgia, 'ui-serif', serif"
        font-size="72"
        font-weight="600"
        letter-spacing="-1"
        fill="#2B2A28">Templane</text>

  <!-- Tagline -->
  <text x="166" y="130"
        font-family="'Iowan Old Style', 'Palatino Linotype', Georgia, 'ui-serif', serif"
        font-size="18"
        font-style="italic"
        fill="#6B4423"
        opacity="0.8">typed template contracts · cross-engine rendering</text>
</svg>
